<mxfile host="Electron" agent="Mozilla/5.0 (Windows NT 10.0; Win64; x64) AppleWebKit/537.36 (KHTML, like Gecko) draw.io/24.7.8 Chrome/128.0.6613.36 Electron/32.0.1 Safari/537.36" version="24.7.8">
  <diagram name="1 oldal" id="PbzOHcHlm0UfWTBZfhPF">
    <mxGraphModel dx="555" dy="973" grid="1" gridSize="10" guides="1" tooltips="1" connect="1" arrows="1" fold="1" page="1" pageScale="1" pageWidth="827" pageHeight="1169" math="0" shadow="0">
      <root>
        <mxCell id="0" />
        <mxCell id="1" parent="0" />
        <mxCell id="_cC89LtUNlNVkzpoD22r-1" value="Játékos" style="rounded=0;whiteSpace=wrap;html=1;fillColor=#bac8d3;strokeColor=#23445d;" vertex="1" parent="1">
          <mxGeometry x="134" y="490" width="120" height="60" as="geometry" />
        </mxCell>
        <mxCell id="_cC89LtUNlNVkzpoD22r-6" style="edgeStyle=orthogonalEdgeStyle;rounded=0;orthogonalLoop=1;jettySize=auto;html=1;exitX=1;exitY=0.5;exitDx=0;exitDy=0;entryX=0;entryY=0.5;entryDx=0;entryDy=0;" edge="1" parent="1" source="_cC89LtUNlNVkzpoD22r-2" target="_cC89LtUNlNVkzpoD22r-5">
          <mxGeometry relative="1" as="geometry" />
        </mxCell>
        <mxCell id="_cC89LtUNlNVkzpoD22r-7" style="edgeStyle=orthogonalEdgeStyle;rounded=0;orthogonalLoop=1;jettySize=auto;html=1;exitX=0;exitY=0.5;exitDx=0;exitDy=0;entryX=1;entryY=0.5;entryDx=0;entryDy=0;" edge="1" parent="1" source="_cC89LtUNlNVkzpoD22r-2" target="_cC89LtUNlNVkzpoD22r-1">
          <mxGeometry relative="1" as="geometry" />
        </mxCell>
        <mxCell id="_cC89LtUNlNVkzpoD22r-2" value="J-Cs" style="rhombus;whiteSpace=wrap;html=1;" vertex="1" parent="1">
          <mxGeometry x="374" y="480" width="80" height="80" as="geometry" />
        </mxCell>
        <mxCell id="_cC89LtUNlNVkzpoD22r-5" value="Válogatott csapat" style="rounded=0;whiteSpace=wrap;html=1;fillColor=#bac8d3;strokeColor=#23445d;" vertex="1" parent="1">
          <mxGeometry x="574" y="490" width="120" height="60" as="geometry" />
        </mxCell>
        <mxCell id="_cC89LtUNlNVkzpoD22r-8" value="&lt;u&gt;mezszám&lt;/u&gt;" style="ellipse;whiteSpace=wrap;html=1;fillColor=#b0e3e6;strokeColor=#0e8088;" vertex="1" parent="1">
          <mxGeometry x="34" y="400" width="100" height="50" as="geometry" />
        </mxCell>
        <mxCell id="_cC89LtUNlNVkzpoD22r-10" value="nemzetiség" style="ellipse;whiteSpace=wrap;html=1;fillColor=#b0e3e6;strokeColor=#0e8088;" vertex="1" parent="1">
          <mxGeometry x="144" y="400" width="100" height="50" as="geometry" />
        </mxCell>
        <mxCell id="_cC89LtUNlNVkzpoD22r-11" value="név" style="ellipse;whiteSpace=wrap;html=1;fillColor=#b0e3e6;strokeColor=#0e8088;" vertex="1" parent="1">
          <mxGeometry x="254" y="400" width="100" height="50" as="geometry" />
        </mxCell>
        <mxCell id="_cC89LtUNlNVkzpoD22r-12" value="" style="endArrow=none;html=1;rounded=0;entryX=0.5;entryY=0;entryDx=0;entryDy=0;" edge="1" parent="1" target="_cC89LtUNlNVkzpoD22r-1">
          <mxGeometry width="50" height="50" relative="1" as="geometry">
            <mxPoint x="84" y="450" as="sourcePoint" />
            <mxPoint x="134" y="400" as="targetPoint" />
          </mxGeometry>
        </mxCell>
        <mxCell id="_cC89LtUNlNVkzpoD22r-13" value="" style="endArrow=none;html=1;rounded=0;exitX=0.5;exitY=0;exitDx=0;exitDy=0;" edge="1" parent="1" source="_cC89LtUNlNVkzpoD22r-1">
          <mxGeometry width="50" height="50" relative="1" as="geometry">
            <mxPoint x="144" y="500" as="sourcePoint" />
            <mxPoint x="194" y="450" as="targetPoint" />
          </mxGeometry>
        </mxCell>
        <mxCell id="_cC89LtUNlNVkzpoD22r-14" value="" style="endArrow=none;html=1;rounded=0;exitX=0.5;exitY=0;exitDx=0;exitDy=0;" edge="1" parent="1" source="_cC89LtUNlNVkzpoD22r-1">
          <mxGeometry width="50" height="50" relative="1" as="geometry">
            <mxPoint x="254" y="500" as="sourcePoint" />
            <mxPoint x="304" y="450" as="targetPoint" />
          </mxGeometry>
        </mxCell>
        <mxCell id="_cC89LtUNlNVkzpoD22r-15" value="&lt;u&gt;nemzet&lt;/u&gt;" style="ellipse;whiteSpace=wrap;html=1;fillColor=#b0e3e6;strokeColor=#0e8088;" vertex="1" parent="1">
          <mxGeometry x="584" y="400" width="100" height="50" as="geometry" />
        </mxCell>
        <mxCell id="_cC89LtUNlNVkzpoD22r-16" value="" style="endArrow=none;html=1;rounded=0;exitX=0.5;exitY=1;exitDx=0;exitDy=0;entryX=0.5;entryY=0;entryDx=0;entryDy=0;" edge="1" parent="1" source="_cC89LtUNlNVkzpoD22r-15" target="_cC89LtUNlNVkzpoD22r-5">
          <mxGeometry width="50" height="50" relative="1" as="geometry">
            <mxPoint x="510" y="290" as="sourcePoint" />
            <mxPoint x="560" y="240" as="targetPoint" />
          </mxGeometry>
        </mxCell>
      </root>
    </mxGraphModel>
  </diagram>
</mxfile>
